<?xml version="1.0" encoding="UTF-8"?>
<svg width="256" height="256" viewBox="0 0 256 256" fill="none" xmlns="http://www.w3.org/2000/svg">
<rect width="256" height="256" rx="60" fill="#F6F2E5"/>
<rect width="256" height="256" rx="60" fill="url(#paint0_radial_5099_9575)"/>
<path d="M187.071 127.52C189.218 127.52 190.758 127.987 191.691 128.92C192.718 129.853 193.231 131.067 193.231 132.56C193.231 134.987 192.485 137.133 190.991 139C189.591 140.867 187.351 141.847 184.271 141.94C176.805 142.127 170.178 141.567 164.391 140.26C157.765 154.167 149.738 165.74 140.311 174.98C130.978 184.127 121.598 188.7 112.171 188.7C102.465 188.7 95.2313 183.053 90.4713 171.76C85.7113 160.467 83.3313 145.207 83.3313 125.98C83.3313 109.553 84.498 94.8067 86.8313 81.74C87.6713 76.8867 88.838 73.62 90.3313 71.94C91.918 70.1667 94.578 69.28 98.3113 69.28C104.471 69.28 107.551 71.94 107.551 77.26C107.551 77.82 107.458 78.8467 107.271 80.34C104.471 97.14 103.071 112.353 103.071 125.98C103.071 140.26 104.238 151.133 106.571 158.6C108.998 165.973 112.591 169.66 117.351 169.66C122.205 169.66 127.478 166.3 133.171 159.58C138.865 152.86 144.091 144.413 148.851 134.24C143.158 130.693 138.865 126.12 135.971 120.52C133.078 114.827 131.631 108.293 131.631 100.92C131.631 93.5467 132.751 87.34 134.991 82.3C137.325 77.1667 140.451 73.34 144.371 70.82C148.385 68.3 152.818 67.04 157.671 67.04C163.645 67.04 168.358 69.1867 171.811 73.48C175.358 77.7733 177.131 83.6533 177.131 91.12C177.131 101.853 174.798 113.567 170.131 126.26C175.078 127.1 180.725 127.52 187.071 127.52ZM145.771 99.94C145.771 109.087 148.711 115.853 154.591 120.24C158.231 109.787 160.051 101.153 160.051 94.34C160.051 90.42 159.538 87.5733 158.511 85.8C157.485 83.9333 156.085 83 154.311 83C151.791 83 149.738 84.4933 148.151 87.48C146.565 90.3733 145.771 94.5267 145.771 99.94Z" fill="white"/>
<defs>
<radialGradient id="paint0_radial_5099_9575" cx="0" cy="0" r="1" gradientUnits="userSpaceOnUse" gradientTransform="translate(175.407 256) rotate(-78.9694) scale(550.06 318.931)">
<stop stop-color="#836CE8"/>
<stop offset="1" stop-color="#4694FD"/>
</radialGradient>
</defs>
</svg> 